<?xml version="1.0" encoding="UTF-8" standalone="no"?>
<svg
   xmlns:dc="http://purl.org/dc/elements/1.1/"
   xmlns:cc="http://creativecommons.org/ns#"
   xmlns:rdf="http://www.w3.org/1999/02/22-rdf-syntax-ns#"
   xmlns:svg="http://www.w3.org/2000/svg"
   xmlns="http://www.w3.org/2000/svg"
   xmlns:sodipodi="http://sodipodi.sourceforge.net/DTD/sodipodi-0.dtd"
   xmlns:inkscape="http://www.inkscape.org/namespaces/inkscape"
   width="800"
   height="600"
   id="svg3320"
   version="1.1"
   inkscape:version="1.0.1 (3bc2e813f5, 2020-09-07)"
   sodipodi:docname="splash.svg">
  <defs
     id="defs80" />
  <sodipodi:namedview
     pagecolor="#ffffff"
     bordercolor="#666666"
     borderopacity="1"
     objecttolerance="10"
     gridtolerance="10"
     guidetolerance="10"
     inkscape:pageopacity="0"
     inkscape:pageshadow="2"
     inkscape:window-width="1317"
     inkscape:window-height="729"
     id="namedview78"
     showgrid="false"
     inkscape:zoom="0.65937499"
     inkscape:cx="483.78579"
     inkscape:cy="217.80065"
     inkscape:window-x="2275"
     inkscape:window-y="178"
     inkscape:window-maximized="0"
     inkscape:current-layer="svg3320"
     inkscape:document-rotation="0" />
  <!--
  <defs
     id="defs3322">
    <rect
       x="419.70209"
       y="823.27106"
       width="402.36657"
       height="83.940419"
       id="rect82" />
  </defs>
-->
  <!--
  <sodipodi:namedview
     id="base"
     pagecolor="#ffffff"
     bordercolor="#666666"
     borderopacity="1.0"
     inkscape:pageopacity="0.0"
     inkscape:pageshadow="2"
     inkscape:zoom="1.0960155"
     inkscape:cx="362.77719"
     inkscape:cy="380.96431"
     inkscape:document-units="px"
     inkscape:current-layer="svg3320"
     showgrid="false"
     inkscape:window-width="1267"
     inkscape:window-height="1040"
     inkscape:window-x="2436"
     inkscape:window-y="0"
     inkscape:window-maximized="0"
     inkscape:document-rotation="0" />
-->
  <metadata
     id="metadata3325">
    <rdf:RDF>
      <cc:Work
         rdf:about="">
        <dc:format>image/svg+xml</dc:format>
        <dc:type
           rdf:resource="http://purl.org/dc/dcmitype/StillImage" />
        <dc:title />
      </cc:Work>
    </rdf:RDF>
  </metadata>
  <filter
     id="a">
    <feTurbulence
       baseFrequency=".2"
       id="feTurbulence6" />
    <feColorMatrix
       values="0 0 0 9 -4 0 0 0 9 -4 0 0 0 9 -4 0 0 0 0 1"
       id="feColorMatrix8" />
  </filter>
  <rect
     width="100%"
     height="100%"
     filter="url(#a)"
     id="rect11"
     x="80"
     y="60"
     transform="matrix(0.83158147,0,0,0.83507705,0.87271073,-0.71762416)" />
  <g
     inkscape:label="Layer 1"
     inkscape:groupmode="layer"
     id="layer1"
     transform="translate(0,-572.3622)">
    <text
       id="text3002"
       y="716.12354"
       x="23.9023118"
       style="font-style:normal;font-variant:normal;font-weight:bold;font-stretch:normal;font-size:12px;line-height:0%;font-family:'DejaVu Sans';-inkscape-font-specification:'DejaVu Sans Bold';text-align:start;letter-spacing:0px;word-spacing:0px;writing-mode:lr-tb;text-anchor:start;fill:#ffffff;fill-opacity:1;stroke:none;stroke-width:1"
       xml:space="preserve"><tspan
         y="716.12354"
         x="23.9023118"
         sodipodi:role="line"
         style="font-style:normal;font-weight:bold;font-size:20px;line-height:1;-inkscape-font-specification:'DejaVu Sans Bold';stroke-width:1"
         id="tspan3039">PhoneBo.cx Build __BUILD__ @ARCHITECTURE@ @RELEASE@</tspan>
    </text>
    <g
       id="g259"
       transform="matrix(0.10615411,0,0,0.10615411,49.841106,573.97868)">
      <g
         id="g143" />
      <g
         id="g213">
        <g
           id="g151">
          <polygon
             class="st2"
             points="2070,313.8 2070,244.8 2062.3,244.8 2014.4,244.8 2014.4,313.8 "
             id="polygon145" />
          <polygon
             class="st2"
             points="2070,716.8 2070,352.3 2062.3,352.3 2014.4,352.3 2014.4,716.8 "
             id="polygon147" />
          <path
             class="st2"
             d="m 2481.6,459.4 c -9.6,-23.1 -24,-44.3 -43,-63.3 -19,-19 -40.1,-33.4 -63.3,-43 -23.1,-9.6 -48.2,-14.4 -75.1,-14.3 -26.9,0 -52.1,4.9 -75.5,14.7 -18.3,7.7 -35.3,18.3 -51.2,31.9 v -33.2 h -55.6 V 843 h 55.6 v -7.6 -151.8 c 15.9,13.6 32.9,24.2 51.2,31.9 23.4,9.8 48.6,14.7 75.5,14.7 26.9,0 52,-4.8 75.1,-14.3 23.1,-9.6 44.3,-24 63.3,-43 19,-19 33.4,-40.1 43,-63.3 9.6,-23.1 14.4,-48.3 14.3,-75.1 0.1,-26.8 -4.7,-51.9 -14.3,-75.1 z m -127.4,205 c -16.4,6.8 -34.3,10.2 -53.8,10.2 -19.5,0 -37.4,-3.4 -53.8,-10.2 -16.4,-6.8 -31.4,-16.9 -45.1,-30.6 v 0 c -11.9,-11.9 -21.1,-24.6 -27.8,-38.3 V 473.4 c 6.7,-13.6 15.9,-26.1 27.8,-37.7 v 0 l 0.1,-0.1 c 13.7,-13.9 28.7,-24.1 45.1,-31 16.4,-6.8 34.2,-10.3 53.7,-10.3 19.5,0 37.4,3.4 53.8,10.2 16.4,6.8 31.5,17 45.3,30.8 v 0 c 13.8,13.8 24,28.8 30.8,45.3 6.8,16.4 10.2,34.3 10.2,53.8 0,19.5 -3.4,37.4 -10.2,53.8 -6.8,16.4 -17,31.5 -30.8,45.3 -13.9,13.9 -28.9,24.1 -45.3,30.9 z"
             id="path149" />
        </g>
        <g
           id="g159">
          <polygon
             class="st1"
             points="2070,313.8 2070,244.8 2062.3,244.8 2014.4,244.8 2014.4,313.8 "
             id="polygon153" />
          <polygon
             class="st1"
             points="2070,716.8 2070,352.3 2062.3,352.3 2014.4,352.3 2014.4,716.8 "
             id="polygon155" />
          <path
             class="st1"
             d="m 2481.6,459.4 c -9.6,-23.1 -24,-44.3 -43,-63.3 -19,-19 -40.1,-33.4 -63.3,-43 -23.1,-9.6 -48.2,-14.4 -75.1,-14.3 -26.9,0 -52.1,4.9 -75.5,14.7 -18.3,7.7 -35.3,18.3 -51.2,31.9 v -33.2 h -55.6 V 843 h 55.6 v -7.6 -151.8 c 15.9,13.6 32.9,24.2 51.2,31.9 23.4,9.8 48.6,14.7 75.5,14.7 26.9,0 52,-4.8 75.1,-14.3 23.1,-9.6 44.3,-24 63.3,-43 19,-19 33.4,-40.1 43,-63.3 9.6,-23.1 14.4,-48.3 14.3,-75.1 0.1,-26.8 -4.7,-51.9 -14.3,-75.1 z m -127.4,205 c -16.4,6.8 -34.3,10.2 -53.8,10.2 -19.5,0 -37.4,-3.4 -53.8,-10.2 -16.4,-6.8 -31.4,-16.9 -45.1,-30.6 v 0 c -11.9,-11.9 -21.1,-24.6 -27.8,-38.3 V 473.4 c 6.7,-13.6 15.9,-26.1 27.8,-37.7 v 0 l 0.1,-0.1 c 13.7,-13.9 28.7,-24.1 45.1,-31 16.4,-6.8 34.2,-10.3 53.7,-10.3 19.5,0 37.4,3.4 53.8,10.2 16.4,6.8 31.5,17 45.3,30.8 v 0 c 13.8,13.8 24,28.8 30.8,45.3 6.8,16.4 10.2,34.3 10.2,53.8 0,19.5 -3.4,37.4 -10.2,53.8 -6.8,16.4 -17,31.5 -30.8,45.3 -13.9,13.9 -28.9,24.1 -45.3,30.9 z"
             id="path157" />
        </g>
        <g
           id="g185">
          <path
             class="st3"
             d="m 155.3,399.5 c 16.9,-16.9 35.9,-29.5 57.2,-38 21.2,-8.4 42.8,-12.7 64.8,-12.7 22,0 43.6,4.2 64.8,12.7 21.2,8.4 40.3,21.1 57.2,38 l 23.8,23.8 -47.6,48.3 -24.5,-23.8 c -10.2,-10.2 -21.8,-17.9 -34.5,-23 -12.8,-5.1 -25.8,-7.7 -39.1,-7.7 -13.3,0 -26.4,2.6 -39.1,7.7 -12.8,5.1 -24.3,12.8 -34.5,23 -10.2,9.7 -17.9,21 -23,33.8 -5.1,12.8 -7.7,25.8 -7.7,39.1 0,13.3 2.6,26.4 7.7,39.1 5.1,12.8 12.8,24.3 23,34.5 20.5,20.5 45,30.7 73.7,30.7 13.8,0 27.1,-2.6 39.9,-7.7 12.8,-5.1 24,-12.8 33.8,-23 l 24.6,-23.8 47.6,48.3 -23.8,23.8 c -16.9,16.9 -36,29.5 -57.2,38 -21.2,8.4 -42.9,12.7 -64.8,12.7 -22,0 -43.6,-4.2 -64.8,-12.7 -21.2,-8.4 -40.3,-21.1 -57.2,-38 -16.9,-16.9 -29.4,-35.8 -37.6,-56.8 -8.2,-21 -12.3,-42.6 -12.3,-64.8 0,-22.2 4.1,-43.9 12.3,-64.8 7.8,-20.9 20.4,-39.9 37.3,-56.7 z"
             id="path161" />
          <path
             class="st3"
             d="M 519,210.7 V 693.4 H 450.7 V 210.7 Z"
             id="path163" />
          <path
             class="st3"
             d="m 1488.2,348.8 v 68.3 h -34.5 c -14.3,0 -27.8,2.7 -40.3,8.1 -12.5,5.4 -23.5,12.8 -33,22.3 -9.5,9.5 -16.9,20.5 -22.3,33 -5.4,12.5 -8.1,26 -8.1,40.3 v 172.7 h -69 V 520.7 c 0,-24 4.5,-46.4 13.4,-67.2 8.9,-20.7 21.4,-38.9 37.2,-54.5 15.9,-15.6 34.3,-27.9 55.3,-36.8 21,-8.9 43.2,-13.4 66.8,-13.4 z"
             id="path165" />
          <path
             class="st3"
             d="m 1577.2,210.7 v 482.7 h -68.3 V 210.7 Z"
             id="path167" />
          <path
             class="st3"
             d="m 814.5,572.1 48.3,48.3 -23.8,23.9 c -16.4,16.4 -35,28.9 -56,37.6 -21,8.7 -43,13 -66,13 -23,0 -45,-4.3 -66,-13 -21,-8.7 -39.7,-21.2 -56,-37.6 -16.9,-16.9 -29.4,-35.9 -37.6,-57.2 -8.2,-21.2 -12.3,-42.8 -12.3,-64.8 0,-22 4.1,-43.5 12.3,-64.5 8.2,-21 20.7,-39.9 37.6,-56.8 16.9,-16.9 35.9,-29.5 57.2,-38 21.2,-8.4 42.8,-12.7 64.8,-12.7 22,0 43.6,4.2 64.8,12.7 21.2,8.4 40.3,21.1 57.2,38 l 23.8,23.8 -191.1,191.1 c 19.4,9.7 40,12.9 61.8,9.6 21.7,-3.3 40.8,-13.2 57.2,-29.5 z M 643.3,448.6 c -20.5,20.5 -30.7,45 -30.7,73.7 0,15.9 3.6,31 10.7,45.3 6.1,-6.1 15.5,-15.5 28,-28 12.5,-12.5 25.8,-25.8 39.9,-39.9 14.1,-14.1 27.6,-27.5 40.7,-40.3 13,-12.8 23.1,-22.8 30.3,-29.9 -19.4,-9.7 -40,-13 -61.8,-10 -21.6,3 -40.7,12.7 -57.1,29.1 z"
             id="path169" />
          <g
             id="g181">
            <path
               class="st3"
               d="m 1062.1,350 c 24,0 46.4,4.5 67.1,13.4 20.7,9 38.9,21.2 54.5,36.8 15.6,15.6 27.9,33.8 36.8,54.5 8.9,20.7 13.4,43.1 13.4,67.2 V 694.6 H 1062 c -23.5,0 -45.8,-4.5 -66.8,-13.4 -21,-8.9 -39.4,-21.4 -55.3,-37.2 -15.9,-15.9 -28.3,-34.3 -37.2,-55.3 -9,-21 -13.4,-43.2 -13.4,-66.8 0,-24 4.5,-46.4 13.4,-67.2 8.9,-20.7 21.4,-38.9 37.2,-54.5 15.9,-15.6 34.3,-27.9 55.3,-36.8 21.1,-9 43.4,-13.4 66.9,-13.4 z m 103.6,276.2 V 521.9 c 0,-14.3 -2.7,-27.7 -8.1,-40.3 -5.4,-12.5 -12.8,-23.5 -22.3,-33 -9.5,-9.5 -20.5,-16.9 -33,-22.3 -12.5,-5.4 -26,-8.1 -40.3,-8.1 -14.3,0 -27.9,2.7 -40.7,8.1 -12.8,5.4 -23.9,12.8 -33.4,22.3 -9.5,9.5 -16.9,20.5 -22.3,33 -5.4,12.5 -8.1,26 -8.1,40.3 0,14.3 2.7,27.9 8.1,40.7 5.4,12.8 12.8,23.9 22.3,33.4 9.5,9.5 20.6,16.9 33.4,22.3 12.8,5.4 26.3,8.1 40.7,8.1 h 103.7 z"
               id="path171" />
            <g
               id="g179">
              <circle
                 class="st3"
                 cx="1006.9"
                 cy="492.60001"
                 r="13.7"
                 id="circle173" />
              <circle
                 class="st3"
                 cx="1068.2"
                 cy="492.60001"
                 r="13.7"
                 id="circle175" />
              <path
                 class="st3"
                 d="m 1013.2,522.5 c 1.7,10.3 12.3,18.3 25.1,18.3 12.9,0 23.5,-8 25.1,-18.3 z"
                 id="path177" />
            </g>
          </g>
          <path
             class="st3"
             d="m 1960.6,369.1 h -66.5 v 167.3 c 0,13.9 -2.6,27.1 -7.8,39.6 -5.2,12.5 -12.5,23.3 -21.7,32.5 -9.2,9.2 -19.9,16.4 -32.1,21.7 -12.2,5.2 -25.3,7.8 -39.2,7.8 -13.9,0 -27.1,-2.6 -39.6,-7.8 -12.5,-5.2 -23.3,-12.4 -32.5,-21.7 -9.2,-9.2 -16.4,-20 -21.7,-32.5 -5.2,-12.4 -7.8,-25.6 -7.8,-39.6 V 369.1 h -66.5 v 167.3 c 0,22.9 4.4,44.6 13.1,65 8.7,20.4 20.8,38.3 36.2,53.8 15.4,15.4 33.4,27.5 53.8,36.2 20.4,8.7 42.1,13.1 65,13.1 18.9,0 37,-3 54.1,-9 17,-5.9 32.5,-14.3 46.3,-25.1 -0.5,6 -1.5,11.9 -3,17.8 -3.5,13 -9.1,24.8 -17,35.2 -7.9,10.4 -17.5,19 -28.8,25.9 -11.4,6.9 -23.9,12.2 -37.7,14.1 l -24.6,3 -8.7,0.7 c -27,2.4 -57.6,2.2 -92.6,-1.8 -36.7,-4.2 -78.1,-12.5 -124.6,-25.9 -56.8,-16.4 -113.6,-25.3 -169.4,-28.2 -55.8,-2.9 -110.5,0.1 -163.4,7.5 -91.5,12.7 -177.5,38.3 -254.2,68.6 -0.2,-0.4 -0.4,-0.7 -0.6,-1 -3.8,-6.3 -9.7,-10 -16.6,-12.1 -5,-1.5 -10.2,-1.9 -15.4,-2.1 -20.2,-0.7 -40.4,-1.4 -60.5,-2 -9.8,-0.3 -19.6,-0.4 -29.4,-0.6 -0.9,0 -1.4,0.2 -1.7,1.1 -2.8,8.1 -5.7,16.1 -8.5,24.2 -0.1,0.3 -0.2,0.7 -0.3,0.8 31.1,0.8 62.1,1 93.5,2.4 -0.6,0.4 -0.9,0.6 -1.2,0.8 -6.5,4.2 -13,8.4 -19.5,12.7 l -75.6,-0.8 -0.1,12.3 57,0.6 c -21.8,14.2 -43.6,28.3 -65.4,42.5 -5.1,3.3 -8.9,8.1 -12.2,13.3 -2.7,4.2 -4.6,8.7 -5.7,13.7 -41.2,-5.4 -82.3,-10.7 -123.4,-16.1 0,-0.1 0,-0.2 -0.1,-0.2 17.3,-9.6 34.7,-19.2 52,-28.8 0.1,0.1 0.1,0.1 0.2,0.2 -1.9,5 -3.8,10 -5.8,15.2 17.4,2.5 34.7,4.9 52.1,7.3 18,-50.6 36.1,-101.2 54.1,-152 -1.9,0 -3.6,0.1 -5.3,0.1 -11.1,0.3 -22.2,0.6 -33.2,0.9 -4.4,0.1 -8.9,0.3 -13.3,0.3 -0.8,0 -0.9,0.5 -1.1,1 -4.4,11.7 -8.8,23.4 -13.2,35.1 -6.6,17.6 -13.2,35.1 -19.8,52.7 -0.2,0.6 -0.8,1.2 -1.4,1.5 -28,15.6 -56.1,31.2 -84,46.9 -10.4,5.8 -20.9,19.1 -18.9,36.5 0.2,1.4 0.3,2.8 0.6,4.1 4.1,23.6 8.4,47.1 12.4,70.7 1.1,6.5 4.2,12 8.8,16.6 5.8,5.9 13.1,9 21.2,10.2 29.1,4.2 58.3,8.3 87.4,12.5 7.9,1.1 15.8,2.2 23.7,3.3 7.8,1.1 15.5,0.1 23.1,-1.8 8.5,-2.2 16.5,-5.8 24,-10.4 5.7,-3.5 10.9,-7.7 16.3,-11.6 35.9,-26.3 71.8,-52.7 107.7,-79 8.9,-6.5 13.6,-15.5 14.7,-26.3 0,-0.4 0.1,-0.9 0.1,-1.3 73.8,-32.6 156.8,-60.7 244.5,-75.9 49,-8.5 99.4,-13 150.6,-12 51.2,0.9 103.1,7.3 155.2,20.5 50,12.7 95.3,20.2 136.3,23.5 41,3.3 74.1,0.6 110.9,-2.2 l 35.9,-5.8 c 19.7,-3.7 40.9,-10.9 59.7,-22.3 18.8,-11.4 32.2,-22.1 47.6,-40.6 14.5,-17.4 23.4,-33.3 29,-57.3 2.8,-12.2 3.9,-19.6 4.4,-36.7 0.1,-0.3 0.1,-0.5 0.1,-0.8 v -5.4 c 0,-1.5 0,-3 0.1,-4.7 h -0.1 z M 808,985.3 c -4.2,-0.2 -8.3,-1 -12.4,-1.4 -1,-0.1 -1.3,-0.6 -1.5,-1.5 -2.8,-15.8 -5.5,-31.6 -8.3,-47.4 -0.1,-0.3 -0.1,-0.7 -0.2,-0.9 -0.1,-0.2 -0.3,-0.5 -0.6,-0.5 -4.3,-0.6 -8.6,-1.1 -13,-1.7 2.9,16.7 5.9,33.3 8.8,50 -0.6,-0.1 -1,-0.1 -1.3,-0.1 -3.7,-0.6 -7.4,-1.2 -11.1,-1.8 -0.9,-0.1 -1.2,-0.5 -1.4,-1.4 -2.8,-16.1 -5.7,-32.3 -8.5,-48.4 -0.1,-0.4 -0.1,-0.8 -0.2,-1.3 -4.5,-0.6 -9,-1.1 -13.6,-1.7 3,17.1 6,33.9 9,50.8 -4.6,-0.6 -9,-1.1 -13.4,-1.7 -0.1,-0.5 -0.2,-0.9 -0.2,-1.3 -2.9,-16.3 -5.7,-32.6 -8.6,-48.8 -0.2,-0.9 -0.5,-1.2 -1.3,-1.3 -3.7,-0.4 -7.4,-0.9 -11.2,-1.4 -0.4,0 -0.8,-0.1 -1.3,-0.1 3,17.1 6,34.1 9,51.2 -0.5,-0.1 -0.8,-0.1 -1.1,-0.1 -3.7,-0.6 -7.5,-1.2 -11.2,-1.7 -0.9,-0.1 -1.3,-0.5 -1.4,-1.4 -2.8,-16 -5.6,-32.1 -8.5,-48.1 0,-0.3 0,-0.6 -0.2,-0.8 -0.2,-0.3 -0.5,-0.7 -0.8,-0.7 -1.5,-0.3 -3.1,-0.4 -4.7,-0.6 -2.7,-0.3 -5.4,-0.7 -8.2,-1 3,16.8 5.9,33.6 8.9,50.5 -3.7,-0.7 -7.4,-0.7 -10.8,-2.2 -0.9,-0.4 -1.7,-0.9 -2.4,-1.5 -0.4,-0.4 -0.8,-1 -0.9,-1.6 -4.3,-24.2 -8.6,-48.4 -12.8,-72.6 -0.2,-1.2 0,-2.4 0,-3.6 0.6,0.1 0.9,0.1 1.3,0.1 44,5.6 88,11.3 132,16.9 0.9,0.1 1.2,0.4 1.4,1.3 4.4,24.8 8.7,49.7 13.1,74.5 0.1,0.4 0.1,0.8 0.2,1.2 -4.1,1 -8.2,2.3 -12.6,2.1 z"
             id="path183" />
        </g>
        <circle
           class="st4"
           cx="1087.7"
           cy="519.70001"
           r="133"
           id="circle187" />
        <path
           class="st5"
           d="m 155.3,399.5 c 16.9,-16.9 35.9,-29.5 57.2,-38 21.2,-8.4 42.8,-12.7 64.8,-12.7 22,0 43.6,4.2 64.8,12.7 21.2,8.4 40.3,21.1 57.2,38 l 23.8,23.8 -47.6,48.3 -24.5,-23.8 c -10.2,-10.2 -21.8,-17.9 -34.5,-23 -12.8,-5.1 -25.8,-7.7 -39.1,-7.7 -13.3,0 -26.4,2.6 -39.1,7.7 -12.8,5.1 -24.3,12.8 -34.5,23 -10.2,9.7 -17.9,21 -23,33.8 -5.1,12.8 -7.7,25.8 -7.7,39.1 0,13.3 2.6,26.4 7.7,39.1 5.1,12.8 12.8,24.3 23,34.5 20.5,20.5 45,30.7 73.7,30.7 13.8,0 27.1,-2.6 39.9,-7.7 12.8,-5.1 24,-12.8 33.8,-23 l 24.6,-23.8 47.6,48.3 -23.8,23.8 c -16.9,16.9 -36,29.5 -57.2,38 -21.2,8.4 -42.9,12.7 -64.8,12.7 -22,0 -43.6,-4.2 -64.8,-12.7 -21.2,-8.4 -40.3,-21.1 -57.2,-38 -16.9,-16.9 -29.4,-35.8 -37.6,-56.8 -8.2,-21 -12.3,-42.6 -12.3,-64.8 0,-22.2 4.1,-43.9 12.3,-64.8 7.8,-20.9 20.4,-39.9 37.3,-56.7 z"
           id="path189" />
        <path
           class="st5"
           d="M 519,210.7 V 693.4 H 450.7 V 210.7 Z"
           id="path191" />
        <path
           class="st5"
           d="m 1488.2,348.8 v 68.3 h -34.5 c -14.3,0 -27.8,2.7 -40.3,8.1 -12.5,5.4 -23.5,12.8 -33,22.3 -9.5,9.5 -16.9,20.5 -22.3,33 -5.4,12.5 -8.1,26 -8.1,40.3 v 172.7 h -69 V 520.7 c 0,-24 4.5,-46.4 13.4,-67.2 8.9,-20.7 21.4,-38.9 37.2,-54.5 15.9,-15.6 34.3,-27.9 55.3,-36.8 21,-8.9 43.2,-13.4 66.8,-13.4 z"
           id="path193" />
        <path
           class="st5"
           d="m 1577.2,210.7 v 482.7 h -68.3 V 210.7 Z"
           id="path195" />
        <path
           class="st5"
           d="m 814.5,572.1 48.3,48.3 -23.8,23.9 c -16.4,16.4 -35,28.9 -56,37.6 -21,8.7 -43,13 -66,13 -23,0 -45,-4.3 -66,-13 -21,-8.7 -39.7,-21.2 -56,-37.6 -16.9,-16.9 -29.4,-35.9 -37.6,-57.2 -8.2,-21.2 -12.3,-42.8 -12.3,-64.8 0,-22 4.1,-43.5 12.3,-64.5 8.2,-21 20.7,-39.9 37.6,-56.8 16.9,-16.9 35.9,-29.5 57.2,-38 21.2,-8.4 42.8,-12.7 64.8,-12.7 22,0 43.6,4.2 64.8,12.7 21.2,8.4 40.3,21.1 57.2,38 l 23.8,23.8 -191.1,191.1 c 19.4,9.7 40,12.9 61.8,9.6 21.7,-3.3 40.8,-13.2 57.2,-29.5 z M 643.3,448.6 c -20.5,20.5 -30.7,45 -30.7,73.7 0,15.9 3.6,31 10.7,45.3 6.1,-6.1 15.5,-15.5 28,-28 12.5,-12.5 25.8,-25.8 39.9,-39.9 14.1,-14.1 27.6,-27.5 40.7,-40.3 13,-12.8 23.1,-22.8 30.3,-29.9 -19.4,-9.7 -40,-13 -61.8,-10 -21.6,3 -40.7,12.7 -57.1,29.1 z"
           id="path197" />
        <g
           id="g209">
          <path
             class="st5"
             d="m 1062.1,350 c 24,0 46.4,4.5 67.1,13.4 20.7,9 38.9,21.2 54.5,36.8 15.6,15.6 27.9,33.8 36.8,54.5 8.9,20.7 13.4,43.1 13.4,67.2 V 694.6 H 1062 c -23.5,0 -45.8,-4.5 -66.8,-13.4 -21,-8.9 -39.4,-21.4 -55.3,-37.2 -15.9,-15.9 -28.3,-34.3 -37.2,-55.3 -9,-21 -13.4,-43.2 -13.4,-66.8 0,-24 4.5,-46.4 13.4,-67.2 8.9,-20.7 21.4,-38.9 37.2,-54.5 15.9,-15.6 34.3,-27.9 55.3,-36.8 21.1,-9 43.4,-13.4 66.9,-13.4 z m 103.6,276.2 V 521.9 c 0,-14.3 -2.7,-27.7 -8.1,-40.3 -5.4,-12.5 -12.8,-23.5 -22.3,-33 -9.5,-9.5 -20.5,-16.9 -33,-22.3 -12.5,-5.4 -26,-8.1 -40.3,-8.1 -14.3,0 -27.9,2.7 -40.7,8.1 -12.8,5.4 -23.9,12.8 -33.4,22.3 -9.5,9.5 -16.9,20.5 -22.3,33 -5.4,12.5 -8.1,26 -8.1,40.3 0,14.3 2.7,27.9 8.1,40.7 5.4,12.8 12.8,23.9 22.3,33.4 9.5,9.5 20.6,16.9 33.4,22.3 12.8,5.4 26.3,8.1 40.7,8.1 h 103.7 z"
             id="path199" />
          <g
             id="g207">
            <circle
               class="st5"
               cx="1006.9"
               cy="492.60001"
               r="13.7"
               id="circle201" />
            <circle
               class="st5"
               cx="1068.2"
               cy="492.60001"
               r="13.7"
               id="circle203" />
            <path
               class="st5"
               d="m 1013.2,522.5 c 1.7,10.3 12.3,18.3 25.1,18.3 12.9,0 23.5,-8 25.1,-18.3 z"
               id="path205" />
          </g>
        </g>
        <path
           class="st5"
           d="m 1960.6,369.1 h -66.5 v 167.3 c 0,13.9 -2.6,27.1 -7.8,39.6 -5.2,12.5 -12.5,23.3 -21.7,32.5 -9.2,9.2 -19.9,16.4 -32.1,21.7 -12.2,5.2 -25.3,7.8 -39.2,7.8 -13.9,0 -27.1,-2.6 -39.6,-7.8 -12.5,-5.2 -23.3,-12.4 -32.5,-21.7 -9.2,-9.2 -16.4,-20 -21.7,-32.5 -5.2,-12.4 -7.8,-25.6 -7.8,-39.6 V 369.1 h -66.5 v 167.3 c 0,22.9 4.4,44.6 13.1,65 8.7,20.4 20.8,38.3 36.2,53.8 15.4,15.4 33.4,27.5 53.8,36.2 20.4,8.7 42.1,13.1 65,13.1 18.9,0 37,-3 54.1,-9 17,-5.9 32.5,-14.3 46.3,-25.1 -0.5,6 -1.5,11.9 -3,17.8 -3.5,13 -9.1,24.8 -17,35.2 -7.9,10.4 -17.5,19 -28.8,25.9 -11.4,6.9 -23.9,12.2 -37.7,14.1 l -24.6,3 -8.7,0.7 c -27,2.4 -57.6,2.2 -92.6,-1.8 -36.7,-4.2 -78.1,-12.5 -124.6,-25.9 -56.8,-16.4 -113.6,-25.3 -169.4,-28.2 -55.8,-2.9 -110.5,0.1 -163.4,7.5 -91.5,12.7 -177.5,38.3 -254.2,68.6 -0.2,-0.4 -0.4,-0.7 -0.6,-1 -3.8,-6.3 -9.7,-10 -16.6,-12.1 -5,-1.5 -10.2,-1.9 -15.4,-2.1 -20.2,-0.7 -40.4,-1.4 -60.5,-2 -9.8,-0.3 -19.6,-0.4 -29.4,-0.6 -0.9,0 -1.4,0.2 -1.7,1.1 -2.8,8.1 -5.7,16.1 -8.5,24.2 -0.1,0.3 -0.2,0.7 -0.3,0.8 31.1,0.8 62.1,1 93.5,2.4 -0.6,0.4 -0.9,0.6 -1.2,0.8 -6.5,4.2 -13,8.4 -19.5,12.7 l -75.6,-0.8 -0.1,12.3 57,0.6 c -21.8,14.2 -43.6,28.3 -65.4,42.5 -5.1,3.3 -8.9,8.1 -12.2,13.3 -2.7,4.2 -4.6,8.7 -5.7,13.7 -41.2,-5.4 -82.3,-10.7 -123.4,-16.1 0,-0.1 0,-0.2 -0.1,-0.2 17.3,-9.6 34.7,-19.2 52,-28.8 0.1,0.1 0.1,0.1 0.2,0.2 -1.9,5 -3.8,10 -5.8,15.2 17.4,2.5 34.7,4.9 52.1,7.3 18,-50.6 36.1,-101.2 54.1,-152 -1.9,0 -3.6,0.1 -5.3,0.1 -11.1,0.3 -22.2,0.6 -33.2,0.9 -4.4,0.1 -8.9,0.3 -13.3,0.3 -0.8,0 -0.9,0.5 -1.1,1 -4.4,11.7 -8.8,23.4 -13.2,35.1 -6.6,17.6 -13.2,35.1 -19.8,52.7 -0.2,0.6 -0.8,1.2 -1.4,1.5 -28,15.6 -56.1,31.2 -84,46.9 -10.4,5.8 -20.9,19.1 -18.9,36.5 0.2,1.4 0.3,2.8 0.6,4.1 4.1,23.6 8.4,47.1 12.4,70.7 1.1,6.5 4.2,12 8.8,16.6 5.8,5.9 13.1,9 21.2,10.2 29.1,4.2 58.3,8.3 87.4,12.5 7.9,1.1 15.8,2.2 23.7,3.3 7.8,1.1 15.5,0.1 23.1,-1.8 8.5,-2.2 16.5,-5.8 24,-10.4 5.7,-3.5 10.9,-7.7 16.3,-11.6 35.9,-26.3 71.8,-52.7 107.7,-79 8.9,-6.5 13.6,-15.5 14.7,-26.3 0,-0.4 0.1,-0.9 0.1,-1.3 73.8,-32.6 156.8,-60.7 244.5,-75.9 49,-8.5 99.4,-13 150.6,-12 51.2,0.9 103.1,7.3 155.2,20.5 50,12.7 95.3,20.2 136.3,23.5 41,3.3 74.1,0.6 110.9,-2.2 l 35.9,-5.8 c 19.7,-3.7 40.9,-10.9 59.7,-22.3 18.8,-11.4 32.2,-22.1 47.6,-40.6 14.5,-17.4 23.4,-33.3 29,-57.3 2.8,-12.2 3.9,-19.6 4.4,-36.7 0.1,-0.3 0.1,-0.5 0.1,-0.8 v -5.4 c 0,-1.5 0,-3 0.1,-4.7 h -0.1 z M 808,985.3 c -4.2,-0.2 -8.3,-1 -12.4,-1.4 -1,-0.1 -1.3,-0.6 -1.5,-1.5 -2.8,-15.8 -5.5,-31.6 -8.3,-47.4 -0.1,-0.3 -0.1,-0.7 -0.2,-0.9 -0.1,-0.2 -0.3,-0.5 -0.6,-0.5 -4.3,-0.6 -8.6,-1.1 -13,-1.7 2.9,16.7 5.9,33.3 8.8,50 -0.6,-0.1 -1,-0.1 -1.3,-0.1 -3.7,-0.6 -7.4,-1.2 -11.1,-1.8 -0.9,-0.1 -1.2,-0.5 -1.4,-1.4 -2.8,-16.1 -5.7,-32.3 -8.5,-48.4 -0.1,-0.4 -0.1,-0.8 -0.2,-1.3 -4.5,-0.6 -9,-1.1 -13.6,-1.7 3,17.1 6,33.9 9,50.8 -4.6,-0.6 -9,-1.1 -13.4,-1.7 -0.1,-0.5 -0.2,-0.9 -0.2,-1.3 -2.9,-16.3 -5.7,-32.6 -8.6,-48.8 -0.2,-0.9 -0.5,-1.2 -1.3,-1.3 -3.7,-0.4 -7.4,-0.9 -11.2,-1.4 -0.4,0 -0.8,-0.1 -1.3,-0.1 3,17.1 6,34.1 9,51.2 -0.5,-0.1 -0.8,-0.1 -1.1,-0.1 -3.7,-0.6 -7.5,-1.2 -11.2,-1.7 -0.9,-0.1 -1.3,-0.5 -1.4,-1.4 -2.8,-16 -5.6,-32.1 -8.5,-48.1 0,-0.3 0,-0.6 -0.2,-0.8 -0.2,-0.3 -0.5,-0.7 -0.8,-0.7 -1.5,-0.3 -3.1,-0.4 -4.7,-0.6 -2.7,-0.3 -5.4,-0.7 -8.2,-1 3,16.8 5.9,33.6 8.9,50.5 -3.7,-0.7 -7.4,-0.7 -10.8,-2.2 -0.9,-0.4 -1.7,-0.9 -2.4,-1.5 -0.4,-0.4 -0.8,-1 -0.9,-1.6 -4.3,-24.2 -8.6,-48.4 -12.8,-72.6 -0.2,-1.2 0,-2.4 0,-3.6 0.6,0.1 0.9,0.1 1.3,0.1 44,5.6 88,11.3 132,16.9 0.9,0.1 1.2,0.4 1.4,1.3 4.4,24.8 8.7,49.7 13.1,74.5 0.1,0.4 0.1,0.8 0.2,1.2 -4.1,1 -8.2,2.3 -12.6,2.1 z"
           id="path211" />
      </g>
    </g>
    <g
       id="g100"
       transform="matrix(2.6216575,0,0,2.7218336,325.25883,572.75619)">
      <g
         id="g80">
        <path
           class="sf0"
           d="m 56.2,15.6 c -0.6,-0.5 -1.2,-0.8 -2,-1 -0.7,-0.2 -1.4,-0.3 -2,-0.3 -0.9,0 -1.6,0.2 -2.2,0.6 -0.6,0.4 -0.8,0.9 -0.8,1.4 0,0.5 0.2,1 0.6,1.4 0.4,0.4 0.9,0.7 1.6,0.9 l 3.8,1 c 1.1,0.3 1.9,0.9 2.6,1.6 0.7,0.7 1,1.7 1,2.8 0,1.3 -0.6,2.4 -1.7,3.2 -1.1,0.8 -2.6,1.3 -4.4,1.3 -1.5,0 -2.8,-0.3 -3.9,-0.9 -1.1,-0.6 -2,-1.4 -2.8,-2.5 l 1.9,-1.4 c 0.7,0.9 1.4,1.5 2.2,1.9 0.8,0.4 1.6,0.5 2.5,0.5 1.1,0 2.1,-0.2 2.7,-0.6 0.7,-0.4 1,-1 1,-1.6 0,-0.5 -0.2,-0.9 -0.5,-1.3 -0.3,-0.4 -0.9,-0.6 -1.6,-0.8 l -3.5,-1 c -1.3,-0.4 -2.2,-1 -2.9,-1.8 -0.7,-0.8 -1,-1.7 -1,-2.7 0,-1.3 0.5,-2.3 1.5,-3.1 1,-0.8 2.3,-1.2 3.9,-1.2 1,0 2,0.2 3.1,0.6 1.1,0.4 2,1 2.9,1.7 z"
           id="path60" />
        <path
           class="sf0"
           d="m 72.7,18 -1.7,1.8 -5.8,5.8 c 0.6,0.4 1.3,0.5 2.1,0.5 1.3,0 2.4,-0.5 3.4,-1.6 l 1.9,1.5 c -1.4,1.7 -3.1,2.5 -5.2,2.5 -1.8,0 -3.4,-0.6 -4.7,-1.9 -1.3,-1.3 -1.9,-2.9 -1.9,-4.7 0,-1.8 0.6,-3.4 1.9,-4.7 1.3,-1.3 2.9,-1.9 4.7,-1.9 1.8,0 3.4,0.6 4.7,1.9 0.1,0.2 0.4,0.5 0.6,0.8 z m -3.4,0.1 c -0.6,-0.4 -1.3,-0.5 -2.1,-0.5 -1.2,0 -2.2,0.4 -3,1.3 -0.8,0.8 -1.3,1.8 -1.3,3 0,0.8 0.2,1.4 0.5,2.1 z"
           id="path62" />
        <path
           class="sf0"
           d="M 78.1,19.5 V 28 H 75.7 V 15.7 h 2.4 v 0.5 c 1,-0.6 2.1,-0.9 3.3,-0.9 1.7,0 3.2,0.6 4.4,1.8 1.2,1.2 1.8,2.7 1.8,4.4 V 28 h -2.4 v -6.6 c 0,-1 -0.4,-1.9 -1.1,-2.7 -0.7,-0.8 -1.6,-1.1 -2.7,-1.1 -1,0 -1.9,0.4 -2.7,1.1 -0.2,0.2 -0.4,0.5 -0.6,0.8 z"
           id="path64" />
        <path
           class="sf0"
           d="m 100.4,27.3 c -1.1,0.8 -2.4,1.2 -3.8,1.2 -1.8,0 -3.4,-0.6 -4.7,-1.9 -1.3,-1.3 -1.9,-2.9 -1.9,-4.7 0,-1.8 0.6,-3.4 1.9,-4.7 1.3,-1.3 2.9,-1.9 4.7,-1.9 1.4,0 2.7,0.4 3.8,1.2 v -4 h 2.4 V 28 h -2.4 z m 0,-3.5 v -3.9 c -0.2,-0.4 -0.5,-0.7 -0.8,-1 -0.8,-0.8 -1.8,-1.3 -3,-1.3 -1.2,0 -2.2,0.4 -3,1.3 -0.8,0.8 -1.3,1.8 -1.3,3 0,1.2 0.4,2.2 1.3,3 0.8,0.8 1.8,1.2 3,1.2 1.2,0 2.2,-0.4 3,-1.2 0.4,-0.4 0.6,-0.7 0.8,-1.1 z"
           id="path66" />
        <path
           class="sf0"
           d="m 108.9,28 h -2.4 V 12.4 h 9.9 v 2.4 h -7.6 V 19 h 5.7 v 2.4 h -5.7 V 28 Z"
           id="path68" />
        <path
           class="sf0"
           d="m 126.9,27.3 c -1.1,0.8 -2.4,1.2 -3.8,1.2 -1.8,0 -3.4,-0.6 -4.7,-1.9 -1.3,-1.3 -1.9,-2.9 -1.9,-4.7 0,-1.8 0.6,-3.4 1.9,-4.7 1.3,-1.3 2.9,-1.9 4.7,-1.9 1.4,0 2.7,0.4 3.8,1.2 v -0.7 h 2.4 V 28 h -2.4 z m 0,-3.5 v -3.9 c -0.2,-0.4 -0.5,-0.7 -0.8,-1 -0.8,-0.8 -1.8,-1.3 -3,-1.3 -1.2,0 -2.2,0.4 -3,1.3 -0.8,0.8 -1.2,1.8 -1.2,3 0,1.2 0.4,2.2 1.2,3 0.8,0.8 1.8,1.2 3,1.2 1.2,0 2.2,-0.4 3,-1.2 0.4,-0.4 0.6,-0.7 0.8,-1.1 z"
           id="path70" />
        <path
           class="sf0"
           d="m 134.6,15.7 3,4.1 3,-4.1 h 2.9 l -4.5,6.2 4.5,6.2 h -2.9 l -3,-4.1 -3,4.1 h -2.9 l 4.5,-6.2 -4.5,-6.2 z"
           id="path72" />
        <path
           class="sf0"
           d="M 147.8,25.6 V 28 h -2.4 v -2.4 z"
           id="path74" />
        <path
           class="sf0"
           d="m 151.1,12.4 h 2.4 v 3.3 h 1.9 V 18 h -1.9 v 10 h -2.4 z"
           id="path76" />
        <path
           class="sf0"
           d="m 167.1,17.1 c 1.3,1.3 1.9,2.9 1.9,4.7 0,1.8 -0.6,3.4 -1.9,4.7 -1.3,1.3 -2.9,1.9 -4.7,1.9 -1.8,0 -3.4,-0.6 -4.7,-1.9 -1.3,-1.3 -1.9,-2.9 -1.9,-4.7 0,-1.8 0.6,-3.4 1.9,-4.7 1.3,-1.3 2.9,-1.9 4.7,-1.9 1.8,0 3.4,0.6 4.7,1.9 z m -4.6,0.5 c -1.2,0 -2.2,0.4 -3,1.3 -0.8,0.8 -1.2,1.8 -1.2,3 0,1.2 0.4,2.2 1.2,3 0.8,0.8 1.8,1.2 3,1.2 1.2,0 2.2,-0.4 3,-1.2 0.8,-0.8 1.2,-1.8 1.2,-3 0,-1.2 -0.4,-2.2 -1.2,-3 -0.9,-0.9 -1.9,-1.3 -3,-1.3 z"
           id="path78" />
      </g>
      <g
         id="g98">
        <path
           class="sf1"
           d="M 37,13.7 C 35.9,12.5 34.5,11.7 33,11.3 32.5,10 31.7,8.8 30.6,8 29.5,7.2 28.2,6.7 26.8,6.5 V 6.3 C 26.8,6.1 26.7,5.9 26.6,5.7 L 22.7,1.4 c 0,0 0,0 0,0 0,0 0,0 0,0 0,0 0,0 0,0 0,0 0,0 0,0 0,0 0,0 0,0 0,0 0,0 0,0 0,0 0,0 0,0 0,0 0,0 0,0 0,0 0,0 0,0 0,0 0,0 0,0 0,0 0,0 -0.1,0 0,0 0,0 0,0 0,0 0,0 0,0 0,0 0,0 0,0 0,0 0,0 -0.1,0 0,0 0,0 0,0 0,0 0,0 -0.1,0 0,0 0,0 0,0 0,0 -0.1,0 -0.1,0 0,0 0,0 0,0 0,0 0,0 0,0 H 14 c -0.5,0 -0.9,0.4 -0.9,0.9 v 4.6 c -1.7,-0.2 -3,0.3 -4.1,1.2 -1.1,0.8 -2,2 -2.4,3.3 -1.5,0.3 -3,1.2 -4,2.4 -1.2,1.4 -1.8,3.1 -1.8,4.9 v 7 c 0,2 0.8,3.9 2.2,5.3 1.4,1.4 3.3,2.2 5.3,2.2 h 1.3 l -0.7,1.3 c -0.1,0.3 -0.1,0.6 0,0.9 0.2,0.3 0.4,0.4 0.7,0.4 H 30 c 0.3,0 0.6,-0.2 0.7,-0.4 0.2,-0.3 0.2,-0.6 0,-0.9 L 30,33.2 h 1.3 c 2,0 3.9,-0.8 5.3,-2.2 1.4,-1.4 2.2,-3.3 2.2,-5.3 v -7 c 0,-1.9 -0.6,-3.6 -1.8,-5 z"
           id="path82" />
        <path
           class="sf2"
           d="m 14.5,2.8 h 6.6 v 3.4 c 0,0.5 0.4,0.9 0.9,0.9 h 3 v 6 c -1.7,-0.3 -3.4,-0.4 -5.2,-0.4 -1.8,0 -3.6,0.1 -5.2,0.4 V 2.8 Z"
           id="path84" />
        <path
           class="sf3"
           d="m 13.8,15.1 c 0,-0.1 0,-0.1 0,0 1.9,-0.4 3.9,-0.6 6,-0.6 2.1,0 4.1,0.2 5.9,0.6 0,0 0,0 0,0 0.7,0.1 1.3,0.3 1.9,0.5 0.3,1.6 0.5,3.4 0.1,4.5 -0.3,0.7 -1.2,1.3 -2.7,1.7 -1.5,0.5 -3.3,0.7 -5.3,0.7 -2,0 -3.9,-0.3 -5.3,-0.7 C 13,21.4 12,20.7 11.7,20.1 11.2,19 11.5,17.2 11.8,15.6 c 0.7,-0.2 1.4,-0.4 2,-0.5 z"
           id="path86" />
        <path
           class="sf2"
           d="m 11,33.9 0.7,-1.3 c 0,0 0,0 0,0 L 14.2,28 h 11.2 l 2.5,4.6 c 0,0 0,0 0,0 l 0.7,1.3 z"
           id="path88" />
        <path
           class="sf2"
           d="m 37.1,25.6 c 0,3.1 -2.6,5.7 -5.7,5.7 H 29.2 L 27.3,27.9 H 30 c 0.5,0 0.9,-0.4 0.9,-0.9 0,-0.5 -0.4,-0.9 -0.9,-0.9 H 9.5 c -0.5,0 -0.9,0.4 -0.9,0.9 0,0.5 0.4,0.9 0.9,0.9 h 2.7 l -1.9,3.4 H 8.2 c -3.1,0 -5.7,-2.6 -5.7,-5.7 v -7 c 0,-2.8 2.1,-5.2 4.9,-5.6 0.3,0 0.6,-0.3 0.7,-0.6 0.6,-2.2 2.5,-3.8 4.7,-4 v 1.1 c -1,0.5 -1.8,1.6 -2,3 -0.1,0.4 -0.2,0.8 -0.3,1.4 -0.5,2.1 -1.1,5 -0.3,6.9 0.5,1.2 1.8,2.1 3.8,2.7 1.6,0.5 3.7,0.8 5.8,0.8 2.1,0 4.2,-0.3 5.8,-0.8 2,-0.6 3.3,-1.5 3.8,-2.7 0.8,-2 0.2,-4.8 -0.3,-6.9 -0.1,-0.5 -0.2,-1 -0.3,-1.4 -0.2,-1.4 -1,-2.5 -2,-3 V 8.3 c 2.2,0.3 4.1,1.9 4.7,4 0.1,0.3 0.4,0.6 0.7,0.6 2.8,0.4 4.9,2.8 4.9,5.6 z"
           id="path90" />
        <path
           class="sf4"
           d="m 27.7,20 c -0.3,0.7 -1.2,1.3 -2.7,1.7 -1.5,0.5 -3.3,0.7 -5.3,0.7 -2,0 -3.9,-0.3 -5.3,-0.7 C 13,21.3 12,20.6 11.7,20 c -0.5,-1.1 -0.2,-2.9 0.1,-4.5 0.6,-0.2 1.3,-0.3 1.9,-0.5 0,0 0,0 0,0 1.9,-0.4 3.9,-0.6 5.9,-0.6 2,0 4.1,0.2 5.9,0.6 0,0 0,0 0,0 0.7,0.1 1.3,0.3 1.9,0.5 0.6,1.6 0.8,3.4 0.3,4.5 z"
           id="path92" />
        <path
           class="sf1"
           d="m 15.7,30.2 h 8.1 c 0.3,0 0.6,-0.3 0.6,-0.6 0,-0.3 -0.3,-0.6 -0.6,-0.6 h -8.1 c -0.3,0 -0.6,0.3 -0.6,0.6 0,0.3 0.3,0.6 0.6,0.6 z"
           id="path94" />
        <path
           class="sf1"
           d="M 24.8,31.7 H 14.7 c -0.3,0 -0.6,0.3 -0.6,0.6 0,0.3 0.3,0.6 0.6,0.6 h 10.1 c 0.3,0 0.6,-0.3 0.6,-0.6 0,-0.3 -0.3,-0.6 -0.6,-0.6 z"
           id="path96" />
      </g>
    </g>
    <text
       xml:space="preserve"
       id="text80"
       style="fill:black;fill-opacity:1;line-height:1.25;stroke:none;font-family:sans-serif;font-style:normal;font-weight:normal;font-size:40px;white-space:pre;shape-inside:url(#rect82);" />
  </g>
  <style
     type="text/css"
     id="style141">
	.st0{fill:#231F20;}
	.st1{fill:#00AEEF;}
	.st2{fill:#FFFFFF;stroke:#FFFFFF;stroke-width:38.95;stroke-miterlimit:10;}
	.st3{fill:#FFFFFF;stroke:#FFFFFF;stroke-width:40.85;stroke-miterlimit:10;}
	.st4{fill:#FFFFFF;}
	.st5{fill:#808285;}
</style>
  <style
     type="text/css"
     id="style58">
	.sf0{fill:#1B75BC;stroke:#1B75BC;stroke-width:0.4063;stroke-miterlimit:10;}
	.sf1{fill:#1B75BC;}
	.sf2{fill:#FFFFFF;}
	.sf3{fill:#333391;}
	.sf4{fill:#00AEEF;}
</style>
</svg>
